<svg width="64" height="64" viewBox="0 0 64 64" xmlns="http://www.w3.org/2000/svg">
  <defs>
    <linearGradient id="page" x1="0" y1="0" x2="0" y2="1">
      <stop offset="0" stop-color="#ffffff"/>
      <stop offset="1" stop-color="#f0f1f2"/>
    </linearGradient>
    <linearGradient id="badge" x1="0" y1="0" x2="0" y2="1">
      <stop offset="0" stop-color="#68a8f0"/>
      <stop offset="1" stop-color="#3689e6"/>
    </linearGradient>
  </defs>

  <!-- Page, with the top-right corner folded back. -->
  <path d="M9 6.5a3 3 0 0 1 3-3h24l13 13v34a3 3 0 0 1-3 3H12a3 3 0 0 1-3-3z"
        fill="url(#page)" stroke="#b9bcbf" stroke-width="1"/>
  <path d="M36 3.5l13 13H39a3 3 0 0 1-3-3z" fill="#d3d6d8"/>

  <!-- Markdown source: a heading rule, body lines, and a bullet. -->
  <g fill="#9a9ea2">
    <rect x="16" y="24" width="18" height="3.5" rx="1.75" fill="#4d5257"/>
    <rect x="16" y="32" width="26" height="2.5" rx="1.25"/>
    <rect x="16" y="38" width="22" height="2.5" rx="1.25"/>
    <circle cx="17.5" cy="45.5" r="1.5"/>
    <rect x="22" y="44.25" width="14" height="2.5" rx="1.25"/>
  </g>

  <!-- Export badge: the point of the app is what leaves it. -->
  <circle cx="46" cy="46" r="14" fill="#ffffff"/>
  <circle cx="46" cy="46" r="12.5" fill="url(#badge)"/>
  <path d="M40 46h11m-4.5-4.5L51 46l-4.5 4.5" fill="none" stroke="#ffffff"
        stroke-width="3" stroke-linecap="round" stroke-linejoin="round"/>
</svg>
